<svg id="SvgjsSvg1280" width="652.5" height="1144" xmlns="http://www.w3.org/2000/svg" version="1.1" xmlns:xlink="http://www.w3.org/1999/xlink" xmlns:svgjs="http://svgjs.com/svgjs"><defs id="SvgjsDefs1281"><marker id="SvgjsMarker1312" markerWidth="14" markerHeight="10" refX="10" refY="5" viewBox="0 0 14 10" orient="auto" markerUnits="userSpaceOnUse" stroke-dasharray="0,0"><path id="SvgjsPath1313" d="M0,0 L14,5 L0,10 L0,0" fill="#323232" stroke="#323232" stroke-width="1"></path></marker><marker id="SvgjsMarker1316" markerWidth="14" markerHeight="10" refX="10" refY="5" viewBox="0 0 14 10" orient="auto" markerUnits="userSpaceOnUse" stroke-dasharray="0,0"><path id="SvgjsPath1317" d="M0,0 L14,5 L0,10 L0,0" fill="#323232" stroke="#323232" stroke-width="1"></path></marker><marker id="SvgjsMarker1324" markerWidth="14" markerHeight="10" refX="10" refY="5" viewBox="0 0 14 10" orient="auto" markerUnits="userSpaceOnUse" stroke-dasharray="0,0"><path id="SvgjsPath1325" d="M0,0 L14,5 L0,10 L0,0" fill="#323232" stroke="#323232" stroke-width="1"></path></marker><marker id="SvgjsMarker1340" markerWidth="14" markerHeight="10" refX="10" refY="5" viewBox="0 0 14 10" orient="auto" markerUnits="userSpaceOnUse" stroke-dasharray="0,0"><path id="SvgjsPath1341" d="M0,0 L14,5 L0,10 L0,0" fill="#323232" stroke="#323232" stroke-width="1"></path></marker><marker id="SvgjsMarker1354" markerWidth="14" markerHeight="10" refX="10" refY="5" viewBox="0 0 14 10" orient="auto" markerUnits="userSpaceOnUse" stroke-dasharray="0,0"><path id="SvgjsPath1355" d="M0,0 L14,5 L0,10 L0,0" fill="#323232" stroke="#323232" stroke-width="1"></path></marker><marker id="SvgjsMarker1362" markerWidth="14" markerHeight="10" refX="10" refY="5" viewBox="0 0 14 10" orient="auto" markerUnits="userSpaceOnUse" stroke-dasharray="0,0"><path id="SvgjsPath1363" d="M0,0 L14,5 L0,10 L0,0" fill="#323232" stroke="#323232" stroke-width="1"></path></marker><marker id="SvgjsMarker1386" markerWidth="14" markerHeight="10" refX="10" refY="5" viewBox="0 0 14 10" orient="auto" markerUnits="userSpaceOnUse" stroke-dasharray="0,0"><path id="SvgjsPath1387" d="M0,0 L14,5 L0,10 L0,0" fill="#323232" stroke="#323232" stroke-width="1"></path></marker><marker id="SvgjsMarker1394" markerWidth="14" markerHeight="10" refX="10" refY="5" viewBox="0 0 14 10" orient="auto" markerUnits="userSpaceOnUse" stroke-dasharray="0,0"><path id="SvgjsPath1395" d="M0,0 L14,5 L0,10 L0,0" fill="#323232" stroke="#323232" stroke-width="1"></path></marker><marker id="SvgjsMarker1410" markerWidth="14" markerHeight="10" refX="10" refY="5" viewBox="0 0 14 10" orient="auto" markerUnits="userSpaceOnUse" stroke-dasharray="0,0"><path id="SvgjsPath1411" d="M0,0 L14,5 L0,10 L0,0" fill="#323232" stroke="#323232" stroke-width="1"></path></marker><marker id="SvgjsMarker1418" markerWidth="14" markerHeight="10" refX="10" refY="5" viewBox="0 0 14 10" orient="auto" markerUnits="userSpaceOnUse" stroke-dasharray="0,0"><path id="SvgjsPath1419" d="M0,0 L14,5 L0,10 L0,0" fill="#323232" stroke="#323232" stroke-width="1"></path></marker><marker id="SvgjsMarker1432" markerWidth="14" markerHeight="10" refX="10" refY="5" viewBox="0 0 14 10" orient="auto" markerUnits="userSpaceOnUse" stroke-dasharray="0,0"><path id="SvgjsPath1433" d="M0,0 L14,5 L0,10 L0,0" fill="#323232" stroke="#323232" stroke-width="1"></path></marker><marker id="SvgjsMarker1448" markerWidth="14" markerHeight="10" refX="10" refY="5" viewBox="0 0 14 10" orient="auto" markerUnits="userSpaceOnUse" stroke-dasharray="0,0"><path id="SvgjsPath1449" d="M0,0 L14,5 L0,10 L0,0" fill="#323232" stroke="#323232" stroke-width="1"></path></marker><marker id="SvgjsMarker1470" markerWidth="14" markerHeight="10" refX="10" refY="5" viewBox="0 0 14 10" orient="auto" markerUnits="userSpaceOnUse" stroke-dasharray="0,0"><path id="SvgjsPath1471" d="M0,0 L14,5 L0,10 L0,0" fill="#323232" stroke="#323232" stroke-width="1"></path></marker><marker id="SvgjsMarker1488" markerWidth="14" markerHeight="10" refX="10" refY="5" viewBox="0 0 14 10" orient="auto" markerUnits="userSpaceOnUse" stroke-dasharray="0,0"><path id="SvgjsPath1489" d="M0,0 L14,5 L0,10 L0,0" fill="#323232" stroke="#323232" stroke-width="1"></path></marker><marker id="SvgjsMarker1496" markerWidth="14" markerHeight="10" refX="10" refY="5" viewBox="0 0 14 10" orient="auto" markerUnits="userSpaceOnUse" stroke-dasharray="0,0"><path id="SvgjsPath1497" d="M0,0 L14,5 L0,10 L0,0" fill="#323232" stroke="#323232" stroke-width="1"></path></marker><marker id="SvgjsMarker1508" markerWidth="14" markerHeight="10" refX="10" refY="5" viewBox="0 0 14 10" orient="auto" markerUnits="userSpaceOnUse" stroke-dasharray="0,0"><path id="SvgjsPath1509" d="M0,0 L14,5 L0,10 L0,0" fill="#323232" stroke="#323232" stroke-width="1"></path></marker><marker id="SvgjsMarker1512" markerWidth="14" markerHeight="10" refX="10" refY="5" viewBox="0 0 14 10" orient="auto" markerUnits="userSpaceOnUse" stroke-dasharray="0,0"><path id="SvgjsPath1513" d="M0,0 L14,5 L0,10 L0,0" fill="#323232" stroke="#323232" stroke-width="1"></path></marker><marker id="SvgjsMarker1544" markerWidth="14" markerHeight="10" refX="10" refY="5" viewBox="0 0 14 10" orient="auto" markerUnits="userSpaceOnUse" stroke-dasharray="0,0"><path id="SvgjsPath1545" d="M0,0 L14,5 L0,10 L0,0" fill="#323232" stroke="#323232" stroke-width="1"></path></marker><marker id="SvgjsMarker1548" markerWidth="14" markerHeight="10" refX="10" refY="5" viewBox="0 0 14 10" orient="auto" markerUnits="userSpaceOnUse" stroke-dasharray="0,0"><path id="SvgjsPath1549" d="M0,0 L14,5 L0,10 L0,0" fill="#323232" stroke="#323232" stroke-width="1"></path></marker></defs><g id="SvgjsG1282" transform="translate(44,25)"><path id="SvgjsPath1283" d="M 16.666666666666668 0L 83.33333333333333 0C 105.55555555555556 0 105.55555555555556 50 83.33333333333333 50L 16.666666666666668 50C -5.555555555555556 50 -5.555555555555556 0 16.666666666666668 0Z" stroke="rgba(50,50,50,1)" stroke-width="2" fill-opacity="1" fill="#ffffff"></path><g id="SvgjsG1284"><text id="SvgjsText1285" font-family="微软雅黑" text-anchor="middle" font-size="13px" width="80px" fill="#323232" font-weight="400" align="middle" lineHeight="125%" anchor="middle" family="微软雅黑" size="13px" weight="400" font-style="" opacity="1" y="14.375" transform="rotate(0)"><tspan id="SvgjsTspan1286" dy="16" x="50"><tspan id="SvgjsTspan1287" style="text-decoration:;">开始</tspan></tspan></text></g></g><g id="SvgjsG1288" transform="translate(25,128)"><path id="SvgjsPath1289" d="M 0 36L 69 0L 138 36L 69 72L 0 36Z" stroke="rgba(50,50,50,1)" stroke-width="2" fill-opacity="1" fill="#ffffff"></path><g id="SvgjsG1290"><text id="SvgjsText1291" font-family="微软雅黑" text-anchor="middle" font-size="13px" width="118px" fill="#323232" font-weight="400" align="middle" lineHeight="125%" anchor="middle" family="微软雅黑" size="13px" weight="400" font-style="" opacity="1" y="16.875" transform="rotate(0)"><tspan id="SvgjsTspan1292" dy="16" x="69"><tspan id="SvgjsTspan1293" style="text-decoration:;">vnode与oldVnode</tspan></tspan><tspan id="SvgjsTspan1294" dy="16" x="69"><tspan id="SvgjsTspan1295" style="text-decoration:;">完全一样？</tspan></tspan></text></g></g><g id="SvgjsG1296" transform="translate(25,253)"><path id="SvgjsPath1297" d="M 0 36L 69 0L 138 36L 69 72L 0 36Z" stroke="rgba(50,50,50,1)" stroke-width="2" fill-opacity="1" fill="#ffffff"></path><g id="SvgjsG1298"><text id="SvgjsText1299" font-family="微软雅黑" text-anchor="middle" font-size="13px" width="118px" fill="#323232" font-weight="400" align="middle" lineHeight="125%" anchor="middle" family="微软雅黑" size="13px" weight="400" font-style="" opacity="1" y="16.875" transform="rotate(0)"><tspan id="SvgjsTspan1300" dy="16" x="69"><tspan id="SvgjsTspan1301" style="text-decoration:;">vnode与oldVnode</tspan></tspan><tspan id="SvgjsTspan1302" dy="16" x="69"><tspan id="SvgjsTspan1303" style="text-decoration:;">是静态节点？</tspan></tspan></text></g></g><g id="SvgjsG1304" transform="translate(25,378)"><path id="SvgjsPath1305" d="M 0 36L 69 0L 138 36L 69 72L 0 36Z" stroke="rgba(50,50,50,1)" stroke-width="2" fill-opacity="1" fill="#ffffff"></path><g id="SvgjsG1306"><text id="SvgjsText1307" font-family="微软雅黑" text-anchor="middle" font-size="13px" width="118px" fill="#323232" font-weight="400" align="middle" lineHeight="125%" anchor="middle" family="微软雅黑" size="13px" weight="400" font-style="" opacity="1" y="25.375" transform="rotate(0)"><tspan id="SvgjsTspan1308" dy="16" x="69"><tspan id="SvgjsTspan1309" style="text-decoration:;">vnode有text属性？</tspan></tspan></text></g></g><g id="SvgjsG1310"><path id="SvgjsPath1311" d="M94 76L94 101.5L94 101.5L94 124.4" stroke="#323232" stroke-width="2" fill="none" marker-end="url(#SvgjsMarker1312)"></path></g><g id="SvgjsG1314"><path id="SvgjsPath1315" d="M94 201L94 226.5L94 226.5L94 249.39999999999998" stroke="#323232" stroke-width="2" fill="none" marker-end="url(#SvgjsMarker1316)"></path><rect id="SvgjsRect1318" width="13" height="16" x="87.5" y="217.2" fill="#ffffff"></rect><text id="SvgjsText1319" font-family="微软雅黑" text-anchor="middle" font-size="13px" width="13px" fill="#323232" font-weight="400" align="top" lineHeight="16px" anchor="middle" family="微软雅黑" size="13px" weight="400" font-style="" opacity="1" y="214.575" transform="rotate(0)"><tspan id="SvgjsTspan1320" dy="16" x="94"><tspan id="SvgjsTspan1321" style="text-decoration:;">否</tspan></tspan></text></g><g id="SvgjsG1322"><path id="SvgjsPath1323" d="M94 326L94 351.5L94 351.5L94 374.4" stroke="#323232" stroke-width="2" fill="none" marker-end="url(#SvgjsMarker1324)"></path><rect id="SvgjsRect1326" width="13" height="16" x="87.5" y="342.2" fill="#ffffff"></rect><text id="SvgjsText1327" font-family="微软雅黑" text-anchor="middle" font-size="13px" width="13px" fill="#323232" font-weight="400" align="top" lineHeight="16px" anchor="middle" family="微软雅黑" size="13px" weight="400" font-style="" opacity="1" y="339.575" transform="rotate(0)"><tspan id="SvgjsTspan1328" dy="16" x="94"><tspan id="SvgjsTspan1329" style="text-decoration:;">否</tspan></tspan></text></g><g id="SvgjsG1330" transform="translate(25,503)"><path id="SvgjsPath1331" d="M 0 36L 69 0L 138 36L 69 72L 0 36Z" stroke="rgba(50,50,50,1)" stroke-width="2" fill-opacity="1" fill="#ffffff"></path><g id="SvgjsG1332"><text id="SvgjsText1333" font-family="微软雅黑" text-anchor="middle" font-size="13px" width="118px" fill="#323232" font-weight="400" align="middle" lineHeight="125%" anchor="middle" family="微软雅黑" size="13px" weight="400" font-style="" opacity="1" y="16.875" transform="rotate(0)"><tspan id="SvgjsTspan1334" dy="16" x="69"><tspan id="SvgjsTspan1335" style="text-decoration:;"> vnode与oldVnode</tspan></tspan><tspan id="SvgjsTspan1336" dy="16" x="69"><tspan id="SvgjsTspan1337" style="text-decoration:;">都存在子节点？</tspan></tspan></text></g></g><g id="SvgjsG1338"><path id="SvgjsPath1339" d="M94 451L94 476.5L94 476.5L94 499.4" stroke="#323232" stroke-width="2" fill="none" marker-end="url(#SvgjsMarker1340)"></path><rect id="SvgjsRect1342" width="13" height="16" x="87.5" y="467.2" fill="#ffffff"></rect><text id="SvgjsText1343" font-family="微软雅黑" text-anchor="middle" font-size="13px" width="13px" fill="#323232" font-weight="400" align="top" lineHeight="16px" anchor="middle" family="微软雅黑" size="13px" weight="400" font-style="" opacity="1" y="464.575" transform="rotate(0)"><tspan id="SvgjsTspan1344" dy="16" x="94"><tspan id="SvgjsTspan1345" style="text-decoration:;">否</tspan></tspan></text></g><g id="SvgjsG1346" transform="translate(264,140.5)"><path id="SvgjsPath1347" d="M 15.666666666666666 0L 84.33333333333333 0C 105.22222222222223 0 105.22222222222223 47 84.33333333333333 47L 15.666666666666666 47C -5.222222222222222 47 -5.222222222222222 0 15.666666666666666 0Z" stroke="rgba(50,50,50,1)" stroke-width="2" fill-opacity="1" fill="#ffffff"></path><g id="SvgjsG1348"><text id="SvgjsText1349" font-family="微软雅黑" text-anchor="middle" font-size="13px" width="80px" fill="#323232" font-weight="400" align="middle" lineHeight="125%" anchor="middle" family="微软雅黑" size="13px" weight="400" font-style="" opacity="1" y="12.875" transform="rotate(0)"><tspan id="SvgjsTspan1350" dy="16" x="50"><tspan id="SvgjsTspan1351" style="text-decoration:;">退出程序</tspan></tspan></text></g></g><g id="SvgjsG1352"><path id="SvgjsPath1353" d="M164 164L213.5 164L213.5 164L260.4 164" stroke="#323232" stroke-width="2" fill="none" marker-end="url(#SvgjsMarker1354)"></path><rect id="SvgjsRect1356" width="13" height="16" x="205.7" y="156" fill="#ffffff"></rect><text id="SvgjsText1357" font-family="微软雅黑" text-anchor="middle" font-size="13px" width="13px" fill="#323232" font-weight="400" align="top" lineHeight="16px" anchor="middle" family="微软雅黑" size="13px" weight="400" font-style="" opacity="1" y="153.375" transform="rotate(0)"><tspan id="SvgjsTspan1358" dy="16" x="212.2"><tspan id="SvgjsTspan1359" style="text-decoration:;">是</tspan></tspan></text></g><g id="SvgjsG1360"><path id="SvgjsPath1361" d="M164 289L314 289L314 191.1" stroke="#323232" stroke-width="2" fill="none" marker-end="url(#SvgjsMarker1362)"></path><rect id="SvgjsRect1364" width="13" height="16" x="281.45" y="281" fill="#ffffff"></rect><text id="SvgjsText1365" font-family="微软雅黑" text-anchor="middle" font-size="13px" width="13px" fill="#323232" font-weight="400" align="top" lineHeight="16px" anchor="middle" family="微软雅黑" size="13px" weight="400" font-style="" opacity="1" y="278.375" transform="rotate(0)"><tspan id="SvgjsTspan1366" dy="16" x="287.95"><tspan id="SvgjsTspan1367" style="text-decoration:;">是</tspan></tspan></text></g><g id="SvgjsG1368" transform="translate(478.5,387.25)"><path id="SvgjsPath1369" d="M 17.833333333333332 0L 131.16666666666666 0C 154.94444444444446 0 154.94444444444446 53.5 131.16666666666666 53.5L 17.833333333333332 53.5C -5.944444444444444 53.5 -5.944444444444444 0 17.833333333333332 0Z" stroke="rgba(50,50,50,1)" stroke-width="2" fill-opacity="1" fill="#ffffff"></path><g id="SvgjsG1370"><text id="SvgjsText1371" font-family="微软雅黑" text-anchor="middle" font-size="13px" width="129px" fill="#323232" font-weight="400" align="middle" lineHeight="125%" anchor="middle" family="微软雅黑" size="13px" weight="400" font-style="" opacity="1" y="7.625" transform="rotate(0)"><tspan id="SvgjsTspan1372" dy="16" x="74.5"><tspan id="SvgjsTspan1373" style="text-decoration:;">用vnode文本替换真</tspan></tspan><tspan id="SvgjsTspan1374" dy="16" x="74.5"><tspan id="SvgjsTspan1375" style="text-decoration:;">实DOM节点中的内容</tspan></tspan></text></g></g><g id="SvgjsG1376" transform="translate(245,378)"><path id="SvgjsPath1377" d="M 0 36L 69 0L 138 36L 69 72L 0 36Z" stroke="rgba(50,50,50,1)" stroke-width="2" fill-opacity="1" fill="#ffffff"></path><g id="SvgjsG1378"><text id="SvgjsText1379" font-family="微软雅黑" text-anchor="middle" font-size="13px" width="118px" fill="#323232" font-weight="400" align="middle" lineHeight="125%" anchor="middle" family="微软雅黑" size="13px" weight="400" font-style="" opacity="1" y="16.875" transform="rotate(0)"><tspan id="SvgjsTspan1380" dy="16" x="69"><tspan id="SvgjsTspan1381" style="text-decoration:;"> vnode与oldVnode</tspan></tspan><tspan id="SvgjsTspan1382" dy="16" x="69"><tspan id="SvgjsTspan1383" style="text-decoration:;">文本不同？</tspan></tspan></text></g></g><g id="SvgjsG1384"><path id="SvgjsPath1385" d="M164 414L204 414L204 414L241.39999999999998 414" stroke="#323232" stroke-width="2" fill="none" marker-end="url(#SvgjsMarker1386)"></path><rect id="SvgjsRect1388" width="13" height="16" x="196.2" y="406" fill="#ffffff"></rect><text id="SvgjsText1389" font-family="微软雅黑" text-anchor="middle" font-size="13px" width="13px" fill="#323232" font-weight="400" align="top" lineHeight="16px" anchor="middle" family="微软雅黑" size="13px" weight="400" font-style="" opacity="1" y="403.375" transform="rotate(0)"><tspan id="SvgjsTspan1390" dy="16" x="202.7"><tspan id="SvgjsTspan1391" style="text-decoration:;">是</tspan></tspan></text></g><g id="SvgjsG1392"><path id="SvgjsPath1393" d="M384 414L430.75 414L430.75 414L474.9 414" stroke="#323232" stroke-width="2" fill="none" marker-end="url(#SvgjsMarker1394)"></path><rect id="SvgjsRect1396" width="13" height="16" x="422.94999999999993" y="406" fill="#ffffff"></rect><text id="SvgjsText1397" font-family="微软雅黑" text-anchor="middle" font-size="13px" width="13px" fill="#323232" font-weight="400" align="top" lineHeight="16px" anchor="middle" family="微软雅黑" size="13px" weight="400" font-style="" opacity="1" y="403.375" transform="rotate(0)"><tspan id="SvgjsTspan1398" dy="16" x="429.44999999999993"><tspan id="SvgjsTspan1399" style="text-decoration:;">是</tspan></tspan></text></g><g id="SvgjsG1400" transform="translate(245,503)"><path id="SvgjsPath1401" d="M 0 36L 69 0L 138 36L 69 72L 0 36Z" stroke="rgba(50,50,50,1)" stroke-width="2" fill-opacity="1" fill="#ffffff"></path><g id="SvgjsG1402"><text id="SvgjsText1403" font-family="微软雅黑" text-anchor="middle" font-size="13px" width="118px" fill="#323232" font-weight="400" align="middle" lineHeight="125%" anchor="middle" family="微软雅黑" size="13px" weight="400" font-style="" opacity="1" y="16.875" transform="rotate(0)"><tspan id="SvgjsTspan1404" dy="16" x="69"><tspan id="SvgjsTspan1405" style="text-decoration:;"> vnode子节点与旧子</tspan></tspan><tspan id="SvgjsTspan1406" dy="16" x="69"><tspan id="SvgjsTspan1407" style="text-decoration:;">节点不同？</tspan></tspan></text></g></g><g id="SvgjsG1408"><path id="SvgjsPath1409" d="M164 539L204 539L204 539L241.39999999999998 539" stroke="#323232" stroke-width="2" fill="none" marker-end="url(#SvgjsMarker1410)"></path><rect id="SvgjsRect1412" width="13" height="16" x="196.2" y="531" fill="#ffffff"></rect><text id="SvgjsText1413" font-family="微软雅黑" text-anchor="middle" font-size="13px" width="13px" fill="#323232" font-weight="400" align="top" lineHeight="16px" anchor="middle" family="微软雅黑" size="13px" weight="400" font-style="" opacity="1" y="528.375" transform="rotate(0)"><tspan id="SvgjsTspan1414" dy="16" x="202.7"><tspan id="SvgjsTspan1415" style="text-decoration:;">是</tspan></tspan></text></g><g id="SvgjsG1416"><path id="SvgjsPath1417" d="M384 539L431 539L431 539L475.4 539" stroke="#323232" stroke-width="2" fill="none" marker-end="url(#SvgjsMarker1418)"></path><rect id="SvgjsRect1420" width="13" height="16" x="423.2" y="531" fill="#ffffff"></rect><text id="SvgjsText1421" font-family="微软雅黑" text-anchor="middle" font-size="13px" width="13px" fill="#323232" font-weight="400" align="top" lineHeight="16px" anchor="middle" family="微软雅黑" size="13px" weight="400" font-style="" opacity="1" y="528.375" transform="rotate(0)"><tspan id="SvgjsTspan1422" dy="16" x="429.7"><tspan id="SvgjsTspan1423" style="text-decoration:;">是</tspan></tspan></text></g><g id="SvgjsG1424" transform="translate(478.5,514)"><path id="SvgjsPath1425" d="M 16.666666666666668 0L 83.33333333333333 0C 105.55555555555556 0 105.55555555555556 50 83.33333333333333 50L 16.666666666666668 50C -5.555555555555556 50 -5.555555555555556 0 16.666666666666668 0Z" stroke="rgba(50,50,50,1)" stroke-width="2" fill-opacity="1" fill="#ffffff"></path><g id="SvgjsG1426"><text id="SvgjsText1427" font-family="微软雅黑" text-anchor="middle" font-size="13px" width="80px" fill="#323232" font-weight="400" align="middle" lineHeight="125%" anchor="middle" family="微软雅黑" size="13px" weight="400" font-style="" opacity="1" y="14.375" transform="rotate(0)"><tspan id="SvgjsTspan1428" dy="16" x="50"><tspan id="SvgjsTspan1429" style="text-decoration:;">更新子节点</tspan></tspan></text></g></g><g id="SvgjsG1430"><path id="SvgjsPath1431" d="M94 576L94 599.5L94 599.5L94 624" stroke="#323232" stroke-width="2" fill="none" marker-end="url(#SvgjsMarker1432)"></path><rect id="SvgjsRect1434" width="13" height="16" x="87.5" y="591.9999999999999" fill="#ffffff"></rect><text id="SvgjsText1435" font-family="微软雅黑" text-anchor="middle" font-size="13px" width="13px" fill="#323232" font-weight="400" align="top" lineHeight="16px" anchor="middle" family="微软雅黑" size="13px" weight="400" font-style="" opacity="1" y="589.3749999999999" transform="rotate(0)"><tspan id="SvgjsTspan1436" dy="16" x="94"><tspan id="SvgjsTspan1437" style="text-decoration:;">否</tspan></tspan></text></g><g id="SvgjsG1438" transform="translate(25,628)"><path id="SvgjsPath1439" d="M 0 36L 69 0L 138 36L 69 72L 0 36Z" stroke="rgba(50,50,50,1)" stroke-width="2" fill-opacity="1" fill="#ffffff"></path><g id="SvgjsG1440"><text id="SvgjsText1441" font-family="微软雅黑" text-anchor="middle" font-size="13px" width="118px" fill="#323232" font-weight="400" align="middle" lineHeight="125%" anchor="middle" family="微软雅黑" size="13px" weight="400" font-style="" opacity="1" y="16.875" transform="rotate(0)"><tspan id="SvgjsTspan1442" dy="16" x="69"><tspan id="SvgjsTspan1443" style="text-decoration:;"> 只有vnode有子节</tspan></tspan><tspan id="SvgjsTspan1444" dy="16" x="69"><tspan id="SvgjsTspan1445" style="text-decoration:;">点？</tspan></tspan></text></g></g><g id="SvgjsG1446"><path id="SvgjsPath1447" d="M164 664L204 664L204 664L241.39999999999998 664" stroke="#323232" stroke-width="2" fill="none" marker-end="url(#SvgjsMarker1448)"></path><rect id="SvgjsRect1450" width="13" height="16" x="196.2" y="656" fill="#ffffff"></rect><text id="SvgjsText1451" font-family="微软雅黑" text-anchor="middle" font-size="13px" width="13px" fill="#323232" font-weight="400" align="top" lineHeight="16px" anchor="middle" family="微软雅黑" size="13px" weight="400" font-style="" opacity="1" y="653.375" transform="rotate(0)"><tspan id="SvgjsTspan1452" dy="16" x="202.7"><tspan id="SvgjsTspan1453" style="text-decoration:;">是</tspan></tspan></text></g><g id="SvgjsG1454" transform="translate(245,629)"><path id="SvgjsPath1455" d="M 0 35L 69 0L 138 35L 69 70L 0 35Z" stroke="rgba(50,50,50,1)" stroke-width="2" fill-opacity="1" fill="#ffffff"></path><g id="SvgjsG1456"><text id="SvgjsText1457" font-family="微软雅黑" text-anchor="middle" font-size="13px" width="118px" fill="#323232" font-weight="400" align="middle" lineHeight="125%" anchor="middle" family="微软雅黑" size="13px" weight="400" font-style="" opacity="1" y="24.375" transform="rotate(0)"><tspan id="SvgjsTspan1458" dy="16" x="69"><tspan id="SvgjsTspan1459" style="text-decoration:;">oldVnode有文本</tspan></tspan></text></g></g><g id="SvgjsG1460" transform="translate(264,765)"><path id="SvgjsPath1461" d="M 0 0L 100 0L 100 70L 0 70Z" stroke="rgba(50,50,50,1)" stroke-width="2" fill-opacity="1" fill="#ffffff"></path><g id="SvgjsG1462"><text id="SvgjsText1463" font-family="微软雅黑" text-anchor="middle" font-size="13px" width="80px" fill="#323232" font-weight="400" align="middle" lineHeight="125%" anchor="middle" family="微软雅黑" size="13px" weight="400" font-style="" opacity="1" y="15.875" transform="rotate(0)"><tspan id="SvgjsTspan1464" dy="16" x="50"><tspan id="SvgjsTspan1465" style="text-decoration:;">清空DOM中</tspan></tspan><tspan id="SvgjsTspan1466" dy="16" x="50"><tspan id="SvgjsTspan1467" style="text-decoration:;">的文本</tspan></tspan></text></g></g><g id="SvgjsG1468"><path id="SvgjsPath1469" d="M314 700L314 732L314 732L314 761.4" stroke="#323232" stroke-width="2" fill="none" marker-end="url(#SvgjsMarker1470)"></path><rect id="SvgjsRect1472" width="13" height="16" x="307.5" y="722.6999999999999" fill="#ffffff"></rect><text id="SvgjsText1473" font-family="微软雅黑" text-anchor="middle" font-size="13px" width="13px" fill="#323232" font-weight="400" align="top" lineHeight="16px" anchor="middle" family="微软雅黑" size="13px" weight="400" font-style="" opacity="1" y="720.0749999999999" transform="rotate(0)"><tspan id="SvgjsTspan1474" dy="16" x="314"><tspan id="SvgjsTspan1475" style="text-decoration:;">有</tspan></tspan></text></g><g id="SvgjsG1476" transform="translate(478.5,639)"><path id="SvgjsPath1477" d="M 16.666666666666668 0L 83.33333333333333 0C 105.55555555555556 0 105.55555555555556 50 83.33333333333333 50L 16.666666666666668 50C -5.555555555555556 50 -5.555555555555556 0 16.666666666666668 0Z" stroke="rgba(50,50,50,1)" stroke-width="2" fill-opacity="1" fill="#ffffff"></path><g id="SvgjsG1478"><text id="SvgjsText1479" font-family="微软雅黑" text-anchor="middle" font-size="13px" width="80px" fill="#323232" font-weight="400" align="middle" lineHeight="125%" anchor="middle" family="微软雅黑" size="13px" weight="400" font-style="" opacity="1" y="-2.125" transform="rotate(0)"><tspan id="SvgjsTspan1480" dy="16" x="50"><tspan id="SvgjsTspan1481" style="text-decoration:;">把vnode的子</tspan></tspan><tspan id="SvgjsTspan1482" dy="16" x="50"><tspan id="SvgjsTspan1483" style="text-decoration:;">节点添加到</tspan></tspan><tspan id="SvgjsTspan1484" dy="16" x="50"><tspan id="SvgjsTspan1485" style="text-decoration:;">DOM中</tspan></tspan></text></g></g><g id="SvgjsG1486"><path id="SvgjsPath1487" d="M384 664L430.75 664L430.75 664L474.9 664" stroke="#323232" stroke-width="2" fill="none" marker-end="url(#SvgjsMarker1488)"></path><rect id="SvgjsRect1490" width="26" height="16" x="416.44999999999993" y="656" fill="#ffffff"></rect><text id="SvgjsText1491" font-family="微软雅黑" text-anchor="middle" font-size="13px" width="26px" fill="#323232" font-weight="400" align="top" lineHeight="16px" anchor="middle" family="微软雅黑" size="13px" weight="400" font-style="" opacity="1" y="653.375" transform="rotate(0)"><tspan id="SvgjsTspan1492" dy="16" x="429.44999999999993"><tspan id="SvgjsTspan1493" style="text-decoration:;">没有</tspan></tspan></text></g><g id="SvgjsG1494"><path id="SvgjsPath1495" d="M365 800L528.5 800L528.5 692.6" stroke="#323232" stroke-width="2" fill="none" marker-end="url(#SvgjsMarker1496)"></path></g><g id="SvgjsG1498" transform="translate(25,919)"><path id="SvgjsPath1499" d="M 0 36L 69 0L 138 36L 69 72L 0 36Z" stroke="rgba(50,50,50,1)" stroke-width="2" fill-opacity="1" fill="#ffffff"></path><g id="SvgjsG1500"><text id="SvgjsText1501" font-family="微软雅黑" text-anchor="middle" font-size="13px" width="118px" fill="#323232" font-weight="400" align="middle" lineHeight="125%" anchor="middle" family="微软雅黑" size="13px" weight="400" font-style="" opacity="1" y="16.875" transform="rotate(0)"><tspan id="SvgjsTspan1502" dy="16" x="69"><tspan id="SvgjsTspan1503" style="text-decoration:;"> 只有oldVnode有子</tspan></tspan><tspan id="SvgjsTspan1504" dy="16" x="69"><tspan id="SvgjsTspan1505" style="text-decoration:;">节点？</tspan></tspan></text></g></g><g id="SvgjsG1506"><path id="SvgjsPath1507" d="M94 701L94 809.5L94 809.5L94 915.4" stroke="#323232" stroke-width="2" fill="none" marker-end="url(#SvgjsMarker1508)"></path></g><g id="SvgjsG1510"><path id="SvgjsPath1511" d="M164 955L204 955L204 955L241.39999999999998 955" stroke="#323232" stroke-width="2" fill="none" marker-end="url(#SvgjsMarker1512)"></path><rect id="SvgjsRect1514" width="13" height="16" x="196.2" y="947" fill="#ffffff"></rect><text id="SvgjsText1515" font-family="微软雅黑" text-anchor="middle" font-size="13px" width="13px" fill="#323232" font-weight="400" align="top" lineHeight="16px" anchor="middle" family="微软雅黑" size="13px" weight="400" font-style="" opacity="1" y="944.375" transform="rotate(0)"><tspan id="SvgjsTspan1516" dy="16" x="202.7"><tspan id="SvgjsTspan1517" style="text-decoration:;">是</tspan></tspan></text></g><g id="SvgjsG1518" transform="translate(245,930)"><path id="SvgjsPath1519" d="M 16.666666666666668 0L 83.33333333333333 0C 105.55555555555556 0 105.55555555555556 50 83.33333333333333 50L 16.666666666666668 50C -5.555555555555556 50 -5.555555555555556 0 16.666666666666668 0Z" stroke="rgba(50,50,50,1)" stroke-width="2" fill-opacity="1" fill="#ffffff"></path><g id="SvgjsG1520"><text id="SvgjsText1521" font-family="微软雅黑" text-anchor="middle" font-size="13px" width="80px" fill="#323232" font-weight="400" align="middle" lineHeight="125%" anchor="middle" family="微软雅黑" size="13px" weight="400" font-style="" opacity="1" y="5.875" transform="rotate(0)"><tspan id="SvgjsTspan1522" dy="16" x="50"><tspan id="SvgjsTspan1523" style="text-decoration:;">清空DOM中</tspan></tspan><tspan id="SvgjsTspan1524" dy="16" x="50"><tspan id="SvgjsTspan1525" style="text-decoration:;">的子节点</tspan></tspan></text></g></g><g id="SvgjsG1526" transform="translate(25,1047)"><path id="SvgjsPath1527" d="M 0 36L 69 0L 138 36L 69 72L 0 36Z" stroke="rgba(50,50,50,1)" stroke-width="2" fill-opacity="1" fill="#ffffff"></path><g id="SvgjsG1528"><text id="SvgjsText1529" font-family="微软雅黑" text-anchor="middle" font-size="13px" width="118px" fill="#323232" font-weight="400" align="middle" lineHeight="125%" anchor="middle" family="微软雅黑" size="13px" weight="400" font-style="" opacity="1" y="16.875" transform="rotate(0)"><tspan id="SvgjsTspan1530" dy="16" x="69"><tspan id="SvgjsTspan1531" style="text-decoration:;">oldVnode中有文</tspan></tspan><tspan id="SvgjsTspan1532" dy="16" x="69"><tspan id="SvgjsTspan1533" style="text-decoration:;">本?</tspan></tspan></text></g></g><g id="SvgjsG1534" transform="translate(245,1058)"><path id="SvgjsPath1535" d="M 16.666666666666668 0L 83.33333333333333 0C 105.55555555555556 0 105.55555555555556 50 83.33333333333333 50L 16.666666666666668 50C -5.555555555555556 50 -5.555555555555556 0 16.666666666666668 0Z" stroke="rgba(50,50,50,1)" stroke-width="2" fill-opacity="1" fill="#ffffff"></path><g id="SvgjsG1536"><text id="SvgjsText1537" font-family="微软雅黑" text-anchor="middle" font-size="13px" width="80px" fill="#323232" font-weight="400" align="middle" lineHeight="125%" anchor="middle" family="微软雅黑" size="13px" weight="400" font-style="" opacity="1" y="5.875" transform="rotate(0)"><tspan id="SvgjsTspan1538" dy="16" x="50"><tspan id="SvgjsTspan1539" style="text-decoration:;">清空DOM中</tspan></tspan><tspan id="SvgjsTspan1540" dy="16" x="50"><tspan id="SvgjsTspan1541" style="text-decoration:;">的文本</tspan></tspan></text></g></g><g id="SvgjsG1542"><path id="SvgjsPath1543" d="M94 992L94 1019L94 1019L94 1043.4" stroke="#323232" stroke-width="2" fill="none" marker-end="url(#SvgjsMarker1544)"></path></g><g id="SvgjsG1546"><path id="SvgjsPath1547" d="M164 1083L204 1083L204 1083L241.39999999999998 1083" stroke="#323232" stroke-width="2" fill="none" marker-end="url(#SvgjsMarker1548)"></path><rect id="SvgjsRect1550" width="13" height="16" x="196.2" y="1075" fill="#ffffff"></rect><text id="SvgjsText1551" font-family="微软雅黑" text-anchor="middle" font-size="13px" width="13px" fill="#323232" font-weight="400" align="top" lineHeight="16px" anchor="middle" family="微软雅黑" size="13px" weight="400" font-style="" opacity="1" y="1072.375" transform="rotate(0)"><tspan id="SvgjsTspan1552" dy="16" x="202.7"><tspan id="SvgjsTspan1553" style="text-decoration:;">是</tspan></tspan></text></g></svg>