<?xml version="1.0" standalone="no"?><?xml-stylesheet type="text/css" href="https://www.processon.com/themes/default/mind/icons/icons.css" ?><!DOCTYPE svg PUBLIC "-//W3C//DTD SVG 1.1//EN" "http://www.w3.org/Graphics/SVG/1.1/DTD/svg11.dtd">
<svg xmlns="http://www.w3.org/2000/svg" version="1.1" xlink="http://www.w3.org/1999/xlink" id="mind-svg-con" width="512px" height="335px" style="position: absolute; left: 0px; top: 0px; width: 512px; height: 335px; background: rgb(247, 247, 247); z-index: 999;"><defs></defs><g id="svgbackgroundid"><defs></defs><rect x="0" y="0" width="512" height="335" fill="#F7F7F7"></rect></g><g transform="translate(-9872, -9755)" id="sdjakdjak6"><defs></defs><g class="svg-topic-con" transform="translate(0.5,0.5)"><path part="right" sub="true" id="line_6bed35295c7e" d="M 10000 9936.5 L 10093 9936.5 C 10133 9936.5 10133 9814.541667938232 10198 9814.541667938232 L 10198 9814.541667938232 L 10318.552085876465 9814.541667938232" stroke="#FA5465" fill="none" stroke-width="3"></path><path part="right" sub="true" id="line_29771de6595b" d="M 10000 9936.5 L 10093 9936.5 C 10133 9936.5 10133 9875.541667938232 10198 9875.541667938232 L 10198 9875.541667938232 L 10305.57292175293 9875.541667938232" stroke="#BE49C4" fill="none" stroke-width="3"></path><path part="right" sub="true" id="line_a58c22e5fb41" d="M 10000 9936.5 L 10093 9936.5 C 10133 9936.5 10133 9936.541667938232 10198 9936.541667938232 L 10198 9936.541667938232 L 10322 9936.541667938232" stroke="#80BA4C" fill="none" stroke-width="3"></path><path part="right" sub="true" id="line_25f74df92b8d" d="M 10000 9936.5 L 10093 9936.5 C 10133 9936.5 10133 9997.541667938232 10198 9997.541667938232 L 10198 9997.541667938232 L 10338 9997.541667938232" stroke="#0F80C4" fill="none" stroke-width="3"></path><path part="right" sub="true" id="line_d66d687aeace" d="M 10000 9936.5 L 10093 9936.5 C 10133 9936.5 10133 10058.541667938232 10198 10058.541667938232 L 10198 10058.541667938232 L 10354 10058.541667938232" stroke="#02ACF4" fill="none" stroke-width="3"></path></g><g class="svg-connection-con" transform="translate(0.5,0.5)"></g><g class="svg-freesums-con" transform="translate(0.5,0.5)"></g><g class="svg-freebos-con" transform="translate(0.5,0.5)"></g></g><g id="d66d687aeace"><rect x="326" y="274" rx="1px" ry="1px" width="156" height="29" style="fill: transparent; stroke:none;"></rect><g><text text-anchor="start" align="top" anchor="start" font-size="16px" font-weight="normal" fill="rgb(13, 11, 34)" style="font-size:16px;font-family:微软雅黑;color:#0D0B22;font-style:normal;text-align:left;font-weight:normal;font-style: normal;"><tspan x="340" y="295.1458740234375"><tspan>异步http请求线程</tspan></tspan></text></g></g><g id="25f74df92b8d"><rect x="326" y="213" rx="1px" ry="1px" width="140" height="29" style="fill: transparent; stroke:none;"></rect><g><text text-anchor="start" align="top" anchor="start" font-size="16px" font-weight="normal" fill="rgb(13, 11, 34)" style="font-size:16px;font-family:微软雅黑;color:#0D0B22;font-style:normal;text-align:left;font-weight:normal;font-style: normal;"><tspan x="340" y="234.1458740234375"><tspan>定时触发器线程</tspan></tspan></text></g></g><g id="a58c22e5fb41"><rect x="326" y="152" rx="1px" ry="1px" width="124" height="29" style="fill: transparent; stroke:none;"></rect><g><text text-anchor="start" align="top" anchor="start" font-size="16px" font-weight="normal" fill="rgb(13, 11, 34)" style="font-size:16px;font-family:微软雅黑;color:#0D0B22;font-style:normal;text-align:left;font-weight:normal;font-style: normal;"><tspan x="340" y="173.1458740234375"><tspan>事件触发线程</tspan></tspan></text></g></g><g id="29771de6595b"><rect x="326" y="91" rx="1px" ry="1px" width="107" height="29" style="fill: transparent; stroke:none;"></rect><g><text text-anchor="start" align="top" anchor="start" font-size="16px" font-weight="normal" fill="rgb(13, 11, 34)" style="font-size:16px;font-family:微软雅黑;color:#0D0B22;font-style:normal;text-align:left;font-weight:normal;font-style: normal;"><tspan x="340" y="112.1458740234375"><tspan>JS引擎线程</tspan></tspan></text></g></g><g id="6bed35295c7e"><rect x="326" y="30" rx="1px" ry="1px" width="121" height="29" style="fill: transparent; stroke:none;"></rect><g><text text-anchor="start" align="top" anchor="start" font-size="16px" font-weight="normal" fill="rgb(13, 11, 34)" style="font-size:16px;font-family:微软雅黑;color:#0D0B22;font-style:normal;text-align:left;font-weight:normal;font-style: normal;"><tspan x="340" y="51.145843505859375"><tspan>GUI渲染线程</tspan></tspan></text></g></g><g transform="translate(326, 274)" id="sdjakdjak0"><g id="subline_d66d687aeace" transform="translate(0.5,0.5)"></g><g transform="translate(0.5,0.5)"></g><g class="svg-summary-con" transform="translate(0.5,0.5)"></g><g class="svg-boundary-con" transform="translate(0.5,0.5)"></g></g><g transform="translate(326, 213)" id="sdjakdjak1"><g id="subline_25f74df92b8d" transform="translate(0.5,0.5)"></g><g transform="translate(0.5,0.5)"></g><g class="svg-summary-con" transform="translate(0.5,0.5)"></g><g class="svg-boundary-con" transform="translate(0.5,0.5)"></g></g><g transform="translate(326, 152)" id="sdjakdjak2"><g id="subline_a58c22e5fb41" transform="translate(0.5,0.5)"></g><g transform="translate(0.5,0.5)"></g><g class="svg-summary-con" transform="translate(0.5,0.5)"></g><g class="svg-boundary-con" transform="translate(0.5,0.5)"></g></g><g transform="translate(326, 91)" id="sdjakdjak3"><g id="subline_29771de6595b" transform="translate(0.5,0.5)"></g><g transform="translate(0.5,0.5)"></g><g class="svg-summary-con" transform="translate(0.5,0.5)"></g><g class="svg-boundary-con" transform="translate(0.5,0.5)"></g></g><g transform="translate(326, 30)" id="sdjakdjak4"><g id="subline_6bed35295c7e" transform="translate(0.5,0.5)"></g><g transform="translate(0.5,0.5)"></g><g class="svg-summary-con" transform="translate(0.5,0.5)"></g><g class="svg-boundary-con" transform="translate(0.5,0.5)"></g></g><g transform="translate(30, 148)" id="sdjakdjak5"><g id="subline_root" transform="translate(0.5,0.5)"></g><g transform="translate(0.5,0.5)"></g><g class="svg-summary-con" transform="translate(0.5,0.5)"></g><g class="svg-boundary-con" transform="translate(0.5,0.5)"></g></g><g id="root"><rect x="30" y="148" rx="7px" ry="7px" width="196" height="67" style="fill: #ffffff; stroke:none;"></rect><g><text text-anchor="start" align="top" anchor="start" font-size="24px" font-weight="normal" fill="rgb(42, 46, 54)" style="font-size:24px;font-family:微软雅黑;color:#2A2E36;font-style:normal;text-align:left;font-weight:normal;font-style: normal;"><tspan x="68" y="190.0521240234375"><tspan>浏览器内核</tspan></tspan></text></g></g></svg>
