<?xml version="1.0" standalone="no"?><?xml-stylesheet type="text/css" href="https://www.processon.com/themes/default/mind/icons/icons.css" ?><!DOCTYPE svg PUBLIC "-//W3C//DTD SVG 1.1//EN" "http://www.w3.org/Graphics/SVG/1.1/DTD/svg11.dtd">
<svg xmlns="http://www.w3.org/2000/svg" version="1.1" xlink="http://www.w3.org/1999/xlink" id="mind-svg-con" width="991px" height="450px" style="position: absolute; left: 0px; top: 0px; width: 991px; height: 450px; background: rgb(247, 247, 247); z-index: 999;"><defs></defs><g id="svgbackgroundid"><defs></defs><rect x="0" y="0" width="991" height="450" fill="#F7F7F7"></rect></g><g transform="translate(-9836, -9697)" id="sdjakdjak5"><defs></defs><g class="svg-topic-con" transform="translate(0.5,0.5)"><path part="right" sub="true" id="line_482142344228" d="M 10000 9936.5 L 10129 9936.5 C 10169 9936.5 10169 9826.437505722046 10234 9826.437505722046 L 10234 9826.437505722046 L 10355.32292175293 9826.437505722046" stroke="#DD489D" fill="none" stroke-width="3"></path><path part="right" sub="true" id="line_a975965176bb" d="M 10000 9936.5 L 10129 9936.5 C 10169 9936.5 10169 9957.562500953674 10234 9957.562500953674 L 10234 9957.562500953674 L 10374 9957.562500953674" stroke="#02ACF4" fill="none" stroke-width="3"></path><path part="right" sub="true" id="line_3cf108b3079f" d="M 10000 9936.5 L 10129 9936.5 C 10169 9936.5 10169 10018.562500953674 10234 10018.562500953674 L 10234 10018.562500953674 L 10327.63542175293 10018.562500953674" stroke="#80BA4C" fill="none" stroke-width="3"></path><path part="right" sub="true" id="line_3f2dcb085d84" d="M 10000 9936.5 L 10129 9936.5 C 10169 9936.5 10169 10097.067708969116 10234 10097.067708969116 L 10234 10097.067708969116 L 10374 10097.067708969116" stroke="#0FBAB0" fill="none" stroke-width="3"></path></g><g class="svg-connection-con" transform="translate(0.5,0.5)"></g><g class="svg-freesums-con" transform="translate(0.5,0.5)"></g><g class="svg-freebos-con" transform="translate(0.5,0.5)"></g></g><g id="3f2dcb085d84"><rect x="398" y="370.53125" rx="1px" ry="1px" width="140" height="30" style="fill: transparent; stroke:none;"></rect><g><text text-anchor="start" align="top" anchor="start" font-size="16px" font-weight="normal" fill="rgb(13, 11, 34)" style="font-size:16px;font-family:微软雅黑;color:#0D0B22;font-style:normal;text-align:left;font-weight:normal;font-style: normal;"><tspan x="412" y="391.6771240234375"><tspan>浏览器渲染进程</tspan></tspan></text></g></g><g id="9a05a849d128"><rect x="614" y="353" rx="1px" ry="1px" width="321" height="65" style="fill: transparent; stroke:none;"></rect><g><text text-anchor="start" align="top" anchor="start" font-size="13px" font-weight="400" fill="rgb(13, 11, 34)" style="font-size:13px;font-family:微软雅黑;color:#0D0B22;font-style:normal;text-align:left;font-weight:400;font-style: normal;"><tspan x="623" y="372"><tspan style="font-size: inherit;">浏览器内核，又叫Renderer进程，内部是多线程的。</tspan></tspan><tspan x="623" y="390.2"><tspan style="font-size: inherit;">默认每个Tab页面一个进程，互不影响。</tspan></tspan><tspan x="623" y="408.4"><tspan style="font-size: inherit;">主要作用为：</tspan><tspan>页面渲染，脚本执行，事件处理等</tspan></tspan></text></g></g><g id="3cf108b3079f"><rect x="398" y="292.0208740234375" rx="1px" ry="1px" width="93" height="29" style="fill: transparent; stroke:none;"></rect><g><text text-anchor="start" align="top" anchor="start" font-size="16px" font-weight="normal" fill="rgb(13, 11, 34)" style="font-size:16px;font-family:微软雅黑;color:#0D0B22;font-style:normal;text-align:left;font-weight:normal;font-style: normal;"><tspan x="412" y="313.16668701171875"><tspan>GPU进程</tspan></tspan></text></g></g><g id="1f02ae5287c0"><rect x="567.6354370117188" y="292" rx="1px" ry="1px" width="165" height="29" style="fill: transparent; stroke:none;"></rect><g><text text-anchor="start" align="top" anchor="start" font-size="13px" font-weight="400" fill="rgb(13, 11, 34)" style="font-size:13px;font-family:微软雅黑;color:#0D0B22;font-style:normal;text-align:left;font-weight:400;font-style: normal;"><tspan x="576.6354370117188" y="312.38543701171875"><tspan>最多一个，用于3D绘制等</tspan></tspan></text></g></g><g id="a975965176bb"><rect x="398" y="231.0208740234375" rx="1px" ry="1px" width="140" height="29" style="fill: transparent; stroke:none;"></rect><g><text text-anchor="start" align="top" anchor="start" font-size="16px" font-weight="normal" fill="rgb(13, 11, 34)" style="font-size:16px;font-family:微软雅黑;color:#0D0B22;font-style:normal;text-align:left;font-weight:normal;font-style: normal;"><tspan x="412" y="252.16668701171875"><tspan>第三方插件进程</tspan></tspan></text></g></g><g id="d4dd8e12414a"><rect x="614" y="231" rx="1px" ry="1px" width="343" height="29" style="fill: transparent; stroke:none;"></rect><g><text text-anchor="start" align="top" anchor="start" font-size="13px" font-weight="400" fill="rgb(13, 11, 34)" style="font-size:13px;font-family:微软雅黑;color:#0D0B22;font-style:normal;text-align:left;font-weight:400;font-style: normal;"><tspan x="623" y="251.38543701171875"><tspan>每种类型的插件对应一个进程，仅当使用该插件时才创建</tspan></tspan></text></g></g><g id="482142344228"><rect x="398" y="99.89584350585938" rx="1px" ry="1px" width="121" height="29" style="fill: transparent; stroke:none;"></rect><g><text text-anchor="start" align="top" anchor="start" font-size="16px" font-weight="normal" fill="rgb(13, 11, 34)" style="font-size:16px;font-family:微软雅黑;color:#0D0B22;font-style:normal;text-align:left;font-weight:normal;font-style: normal;"><tspan x="412" y="121.04168701171875"><tspan>Browser进程</tspan></tspan></text></g></g><g id="c49f50d39863"><rect x="595.3229370117188" y="30" rx="1px" ry="1px" width="317" height="29" style="fill: transparent; stroke:none;"></rect><g><text text-anchor="start" align="top" anchor="start" font-size="13px" font-weight="400" fill="rgb(13, 11, 34)" style="font-size:13px;font-family:微软雅黑;color:#0D0B22;font-style:normal;text-align:left;font-weight:400;font-style: normal;"><tspan x="604.3229370117188" y="50.38543701171875"><tspan>负责浏览器界面显示，与用户交互。如前进，后退等</tspan></tspan></text></g></g><g id="7c6a2442e99e"><rect x="595.3229370117188" y="76.58334350585938" rx="1px" ry="1px" width="265" height="29" style="fill: transparent; stroke:none;"></rect><g><text text-anchor="start" align="top" anchor="start" font-size="13px" font-weight="400" fill="rgb(13, 11, 34)" style="font-size:13px;font-family:微软雅黑;color:#0D0B22;font-style:normal;text-align:left;font-weight:400;font-style: normal;"><tspan x="604.3229370117188" y="96.96875"><tspan>负责各个页面的管理，创建和销毁其他进程</tspan></tspan></text></g></g><g id="63971ab6d9f7"><rect x="595.3229370117188" y="123.16668701171875" rx="1px" ry="1px" width="365" height="29" style="fill: transparent; stroke:none;"></rect><g><text text-anchor="start" align="top" anchor="start" font-size="13px" font-weight="400" fill="rgb(13, 11, 34)" style="font-size:13px;font-family:微软雅黑;color:#0D0B22;font-style:normal;text-align:left;font-weight:400;font-style: normal;"><tspan x="604.3229370117188" y="143.55209350585938"><tspan>将Renderer进程得到的内存中的Bitmap，绘制到用户界面上</tspan></tspan></text></g></g><g id="16af67b0bded"><rect x="595.3229370117188" y="169.75" rx="1px" ry="1px" width="161" height="29" style="fill: transparent; stroke:none;"></rect><g><text text-anchor="start" align="top" anchor="start" font-size="13px" font-weight="400" fill="rgb(13, 11, 34)" style="font-size:13px;font-family:微软雅黑;color:#0D0B22;font-style:normal;text-align:left;font-weight:400;font-style: normal;"><tspan x="604.3229370117188" y="190.13543701171875"><tspan>网络资源的管理，下载等</tspan></tspan></text></g></g><g transform="translate(398, 353)" id="sdjakdjak0"><g id="subline_3f2dcb085d84" transform="translate(0.5,0.5)"><path id="line_9a05a849d128" d="M 140 47.06770896911621 C 186 47.06770896911621 178 64.59375 216 64.59375 L 537 64.59375" p="3f2dcb085d84" stroke="#0FBAB0" fill="none" stroke-linecap="square" stroke-width="3"></path></g><g transform="translate(0.5,0.5)"></g><g class="svg-summary-con" transform="translate(0.5,0.5)"></g><g class="svg-boundary-con" transform="translate(0.5,0.5)"></g></g><g transform="translate(398, 292)" id="sdjakdjak1"><g id="subline_3cf108b3079f" transform="translate(0.5,0.5)"><path id="line_1f02ae5287c0" d="M 93.63542175292969 29.562500953674316 C 139.63543701171875 29.562500953674316 131.63542938232422 29.58333396911621 169.63543701171875 29.58333396911621 L 334.63543701171875 29.58333396911621" p="3cf108b3079f" stroke="#80BA4C" fill="none" stroke-linecap="square" stroke-width="3"></path></g><g transform="translate(0.5,0.5)"></g><g class="svg-summary-con" transform="translate(0.5,0.5)"></g><g class="svg-boundary-con" transform="translate(0.5,0.5)"></g></g><g transform="translate(398, 231)" id="sdjakdjak2"><g id="subline_a975965176bb" transform="translate(0.5,0.5)"><path id="line_d4dd8e12414a" d="M 140 29.562500953674316 C 186 29.562500953674316 178 29.58333396911621 216 29.58333396911621 L 559 29.58333396911621" p="a975965176bb" stroke="#02ACF4" fill="none" stroke-linecap="square" stroke-width="3"></path></g><g transform="translate(0.5,0.5)"></g><g class="svg-summary-con" transform="translate(0.5,0.5)"></g><g class="svg-boundary-con" transform="translate(0.5,0.5)"></g></g><g transform="translate(398, 30)" id="sdjakdjak3"><g id="subline_482142344228" transform="translate(0.5,0.5)"><path id="line_c49f50d39863" d="M 121.32292175292969 99.4375057220459 C 167.32293701171875 99.4375057220459 159.32292938232422 29.58333396911621 197.32293701171875 29.58333396911621 L 514.3229370117188 29.58333396911621" p="482142344228" stroke="#DD489D" fill="none" stroke-linecap="square" stroke-width="3"></path><path id="line_7c6a2442e99e" d="M 121.32292175292969 99.4375057220459 C 167.32293701171875 99.4375057220459 159.32292938232422 76.16667747497559 197.32293701171875 76.16667747497559 L 462.32293701171875 76.16667747497559" p="482142344228" stroke="#DD489D" fill="none" stroke-linecap="square" stroke-width="3"></path><path id="line_63971ab6d9f7" d="M 121.32292175292969 99.4375057220459 C 167.32293701171875 99.4375057220459 159.32292938232422 122.75002098083496 197.32293701171875 122.75002098083496 L 562.3229370117188 122.75002098083496" p="482142344228" stroke="#DD489D" fill="none" stroke-linecap="square" stroke-width="3"></path><path id="line_16af67b0bded" d="M 121.32292175292969 99.4375057220459 C 167.32293701171875 99.4375057220459 159.32292938232422 169.3333339691162 197.32293701171875 169.3333339691162 L 358.32293701171875 169.3333339691162" p="482142344228" stroke="#DD489D" fill="none" stroke-linecap="square" stroke-width="3"></path></g><g transform="translate(0.5,0.5)"></g><g class="svg-summary-con" transform="translate(0.5,0.5)"></g><g class="svg-boundary-con" transform="translate(0.5,0.5)"></g></g><g transform="translate(30, 206)" id="sdjakdjak4"><g id="subline_root" transform="translate(0.5,0.5)"></g><g transform="translate(0.5,0.5)"></g><g class="svg-summary-con" transform="translate(0.5,0.5)"></g><g class="svg-boundary-con" transform="translate(0.5,0.5)"></g></g><g id="root"><rect x="30" y="206" rx="7px" ry="7px" width="268" height="67" style="fill: #ffffff; stroke:none;"></rect><g><text text-anchor="start" align="top" anchor="start" font-size="24px" font-weight="normal" fill="rgb(42, 46, 54)" style="font-size:24px;font-family:微软雅黑;color:#2A2E36;font-style:normal;text-align:left;font-weight:normal;font-style: normal;"><tspan x="68" y="248.0521240234375"><tspan>浏览器的主要进程</tspan></tspan></text></g></g></svg>
