<svg id="SvgjsSvg1083" width="834" height="341" xmlns="http://www.w3.org/2000/svg" version="1.1" xmlns:xlink="http://www.w3.org/1999/xlink" xmlns:svgjs="http://svgjs.com/svgjs"><defs id="SvgjsDefs1084"></defs><g id="SvgjsG1085" transform="translate(25,102)"><path id="SvgjsPath1086" d="M 0 0L 100 0L 100 70L 0 70Z" stroke="rgba(50,50,50,1)" stroke-width="2" fill-opacity="1" fill="#ffffff"></path><g id="SvgjsG1087"><text id="SvgjsText1088" font-family="微软雅黑" text-anchor="middle" font-size="13px" width="80px" fill="#323232" font-weight="400" align="middle" lineHeight="125%" anchor="middle" family="微软雅黑" size="13px" weight="400" font-style="" opacity="1" y="24.375" transform="rotate(0)"><tspan id="SvgjsTspan1089" dy="16" x="50"><tspan id="SvgjsTspan1090" style="text-decoration:;">模板</tspan></tspan></text></g></g><g id="SvgjsG1091" transform="translate(196,102)"><path id="SvgjsPath1092" d="M 0 0L 100 0L 100 70L 0 70Z" stroke="rgba(50,50,50,1)" stroke-width="2" fill-opacity="1" fill="#ffffff"></path><g id="SvgjsG1093"><text id="SvgjsText1094" font-family="微软雅黑" text-anchor="middle" font-size="13px" width="80px" fill="#323232" font-weight="400" align="middle" lineHeight="125%" anchor="middle" family="微软雅黑" size="13px" weight="400" font-style="" opacity="1" y="24.375" transform="rotate(0)"><tspan id="SvgjsTspan1095" dy="16" x="50"><tspan id="SvgjsTspan1096" style="text-decoration:;">解析器</tspan></tspan></text></g></g><g id="SvgjsG1097" transform="translate(367,102)"><path id="SvgjsPath1098" d="M 0 0L 100 0L 100 70L 0 70Z" stroke="rgba(50,50,50,1)" stroke-width="2" fill-opacity="1" fill="#ffffff"></path><g id="SvgjsG1099"><text id="SvgjsText1100" font-family="微软雅黑" text-anchor="middle" font-size="13px" width="80px" fill="#323232" font-weight="400" align="middle" lineHeight="125%" anchor="middle" family="微软雅黑" size="13px" weight="400" font-style="" opacity="1" y="24.375" transform="rotate(0)"><tspan id="SvgjsTspan1101" dy="16" x="50"><tspan id="SvgjsTspan1102" style="text-decoration:;">优化器</tspan></tspan></text></g></g><g id="SvgjsG1103" transform="translate(538,102)"><path id="SvgjsPath1104" d="M 0 0L 100 0L 100 70L 0 70Z" stroke="rgba(50,50,50,1)" stroke-width="2" fill-opacity="1" fill="#ffffff"></path><g id="SvgjsG1105"><text id="SvgjsText1106" font-family="微软雅黑" text-anchor="middle" font-size="13px" width="80px" fill="#323232" font-weight="400" align="middle" lineHeight="125%" anchor="middle" family="微软雅黑" size="13px" weight="400" font-style="" opacity="1" y="24.375" transform="rotate(0)"><tspan id="SvgjsTspan1107" dy="16" x="50"><tspan id="SvgjsTspan1108" style="text-decoration:;">代码生成器</tspan></tspan></text></g></g><g id="SvgjsG1109" transform="translate(709,102)"><path id="SvgjsPath1110" d="M 0 0L 100 0L 100 70L 0 70Z" stroke="rgba(50,50,50,1)" stroke-width="2" fill-opacity="1" fill="#ffffff"></path><g id="SvgjsG1111"><text id="SvgjsText1112" font-family="微软雅黑" text-anchor="middle" font-size="13px" width="80px" fill="#323232" font-weight="400" align="middle" lineHeight="125%" anchor="middle" family="微软雅黑" size="13px" weight="400" font-style="" opacity="1" y="24.375" transform="rotate(0)"><tspan id="SvgjsTspan1113" dy="16" x="50"><tspan id="SvgjsTspan1114" style="text-decoration:;">渲染函数</tspan></tspan></text></g></g><g id="SvgjsG1115" transform="translate(142,130)"><path id="SvgjsPath1116" d="M 0 8.58L 24 8.58L 24 0L 37 13L 24 26L 24 17.42L 0 17.42L 0 8.58Z" stroke="rgba(50,50,50,1)" stroke-width="2" fill-opacity="1" fill="#ffffff"></path><g id="SvgjsG1117"><text id="SvgjsText1118" font-family="微软雅黑" text-anchor="middle" font-size="13px" width="37px" fill="#323232" font-weight="400" align="middle" lineHeight="125%" anchor="middle" family="微软雅黑" size="13px" weight="400" font-style="" opacity="1" y="2.375" transform="rotate(0)"></text></g></g><g id="SvgjsG1119" transform="translate(484,130)"><path id="SvgjsPath1120" d="M 0 8.58L 24 8.58L 24 0L 37 13L 24 26L 24 17.42L 0 17.42L 0 8.58Z" stroke="rgba(50,50,50,1)" stroke-width="2" fill-opacity="1" fill="#ffffff"></path><g id="SvgjsG1121"><text id="SvgjsText1122" font-family="微软雅黑" text-anchor="middle" font-size="13px" width="37px" fill="#323232" font-weight="400" align="middle" lineHeight="125%" anchor="middle" family="微软雅黑" size="13px" weight="400" font-style="" opacity="1" y="2.375" transform="rotate(0)"></text></g></g><g id="SvgjsG1123" transform="translate(655,130)"><path id="SvgjsPath1124" d="M 0 8.58L 24 8.58L 24 0L 37 13L 24 26L 24 17.42L 0 17.42L 0 8.58Z" stroke="rgba(50,50,50,1)" stroke-width="2" fill-opacity="1" fill="#ffffff"></path><g id="SvgjsG1125"><text id="SvgjsText1126" font-family="微软雅黑" text-anchor="middle" font-size="13px" width="37px" fill="#323232" font-weight="400" align="middle" lineHeight="125%" anchor="middle" family="微软雅黑" size="13px" weight="400" font-style="" opacity="1" y="2.375" transform="rotate(0)"></text></g></g><g id="SvgjsG1127" transform="translate(313,130)"><path id="SvgjsPath1128" d="M 0 8.58L 24 8.58L 24 0L 37 13L 24 26L 24 17.42L 0 17.42L 0 8.58Z" stroke="rgba(50,50,50,1)" stroke-width="2" fill-opacity="1" fill="#ffffff"></path><g id="SvgjsG1129"><text id="SvgjsText1130" font-family="微软雅黑" text-anchor="middle" font-size="13px" width="37px" fill="#323232" font-weight="400" align="middle" lineHeight="125%" anchor="middle" family="微软雅黑" size="13px" weight="400" font-style="" opacity="1" y="2.375" transform="rotate(0)"></text></g></g><g id="SvgjsG1131" transform="matrix(6.123233995736766e-17,1,-1,6.123233995736766e-17,576,192)"><path id="SvgjsPath1132" d="M 0 331Q 9 331 9 322L 9 174.5Q 9 165.5 22 165.5Q 9 165.5 9 156.5L 9 9Q 9 0 0 0" stroke="rgba(50,50,50,1)" stroke-width="2" fill="none"></path><path id="SvgjsPath1133" d="M 0 0L 124 0L 124 331L 0 331Z" stroke="none" fill="none"></path><g id="SvgjsG1134"><text id="SvgjsText1135" font-family="微软雅黑" text-anchor="start" font-size="13px" width="97px" fill="#323232" font-weight="400" align="middle" lineHeight="125%" anchor="start" family="微软雅黑" size="13px" weight="400" font-style="" opacity="1" y="154.875" transform="rotate(0)"></text></g></g><g id="SvgjsG1136" transform="translate(350,213)"><path id="SvgjsPath1137" d="M 0 0L 120 0L 120 40L 0 40Z" stroke="none" fill="none"></path><g id="SvgjsG1138"><text id="SvgjsText1139" font-family="微软雅黑" text-anchor="middle" font-size="13px" width="120px" fill="#323232" font-weight="400" align="middle" lineHeight="125%" anchor="middle" family="微软雅黑" size="13px" weight="400" font-style="" opacity="1" y="9.375" transform="rotate(0)"><tspan id="SvgjsTspan1140" dy="16" x="60"><tspan id="SvgjsTspan1141" style="text-decoration:;">模板编译</tspan></tspan></text></g></g><g id="SvgjsG1142" transform="translate(186,25)"><path id="SvgjsPath1143" d="M 0 0L 120 0L 120 40L 0 40Z" stroke="none" fill="none"></path><g id="SvgjsG1144"><text id="SvgjsText1145" font-family="微软雅黑" text-anchor="middle" font-size="13px" width="120px" fill="#323232" font-weight="400" align="middle" lineHeight="125%" anchor="middle" family="微软雅黑" size="13px" weight="400" font-style="" opacity="1" y="9.375" transform="rotate(0)"><tspan id="SvgjsTspan1146" dy="16" x="60"><tspan id="SvgjsTspan1147" style="text-decoration:;">将模板解析成AST</tspan></tspan></text></g></g><g id="SvgjsG1148" transform="translate(350.5,28)"><path id="SvgjsPath1149" d="M 0 0L 133 0L 133 34L 0 34Z" stroke="none" fill="none"></path><g id="SvgjsG1150"><text id="SvgjsText1151" font-family="微软雅黑" text-anchor="middle" font-size="13px" width="133px" fill="#323232" font-weight="400" align="middle" lineHeight="125%" anchor="middle" family="微软雅黑" size="13px" weight="400" font-style="" opacity="1" y="6.375" transform="rotate(0)"><tspan id="SvgjsTspan1152" dy="16" x="66.5"><tspan id="SvgjsTspan1153" style="text-decoration:;">遍历AST标记静态节点</tspan></tspan></text></g></g><g id="SvgjsG1154" transform="translate(528,25)"><path id="SvgjsPath1155" d="M 0 0L 135 0L 135 40L 0 40Z" stroke="none" fill="none"></path><g id="SvgjsG1156"><text id="SvgjsText1157" font-family="微软雅黑" text-anchor="middle" font-size="13px" width="135px" fill="#323232" font-weight="400" align="middle" lineHeight="125%" anchor="middle" family="微软雅黑" size="13px" weight="400" font-style="" opacity="1" y="9.375" transform="rotate(0)"><tspan id="SvgjsTspan1158" dy="16" x="67.5"><tspan id="SvgjsTspan1159" style="text-decoration:;">使用AST生成渲染函数</tspan></tspan></text></g></g></svg>